<svg width="651" height="651" viewBox="0 0 651 651" fill="none" xmlns="http://www.w3.org/2000/svg">
<path d="M585.77 518.834H542.648V519.16H585.77V518.834Z" fill="#EBEBEB"/>
<path d="M431.248 522.375H419.934V522.701H431.248V522.375Z" fill="#EBEBEB"/>
<path d="M144.379 508.939H136.137V509.264H144.379V508.939Z" fill="#EBEBEB"/>
<path d="M293.145 514.433H171.174V514.759H293.145V514.433Z" fill="#EBEBEB"/>
<path d="M310.397 439.816H58.9806C57.0089 439.816 55.1179 439.032 53.7237 437.638C52.3294 436.244 51.5462 434.353 51.5462 432.381V78.9793C51.5633 77.0189 52.3542 75.1446 53.7466 73.7644C55.1389 72.3843 57.0201 71.6099 58.9806 71.61H310.397C311.373 71.61 312.34 71.8023 313.242 72.1759C314.144 72.5495 314.963 73.0972 315.654 73.7875C316.344 74.4779 316.892 75.2974 317.265 76.1994C317.639 77.1014 317.831 78.0681 317.831 79.0444V432.381C317.831 433.358 317.639 434.324 317.265 435.226C316.892 436.128 316.344 436.948 315.654 437.638C314.963 438.328 314.144 438.876 313.242 439.25C312.34 439.623 311.373 439.816 310.397 439.816ZM58.9806 71.8704C57.0963 71.8739 55.2901 72.6239 53.9576 73.9564C52.6252 75.2888 51.8751 77.095 51.8717 78.9793V432.381C51.8751 434.266 52.6252 436.072 53.9576 437.404C55.2901 438.737 57.0963 439.487 58.9806 439.49H310.397C312.281 439.487 314.087 438.737 315.42 437.404C316.752 436.072 317.502 434.266 317.506 432.381V78.9793C317.502 77.095 316.752 75.2888 315.42 73.9564C314.087 72.6239 312.281 71.8739 310.397 71.8704H58.9806Z" fill="#EBEBEB"/>
<path d="M592.019 439.816H340.603C338.631 439.816 336.74 439.032 335.346 437.638C333.952 436.244 333.169 434.353 333.169 432.381V78.9793C333.186 77.0189 333.977 75.1446 335.369 73.7644C336.762 72.3843 338.643 71.6099 340.603 71.61H592.019C593.991 71.61 595.882 72.3933 597.276 73.7875C598.671 75.1817 599.454 77.0727 599.454 79.0444V432.381C599.454 434.353 598.671 436.244 597.276 437.638C595.882 439.032 593.991 439.816 592.019 439.816ZM340.603 71.8704C338.719 71.8739 336.913 72.6239 335.58 73.9564C334.248 75.2888 333.498 77.095 333.494 78.9793V432.381C333.498 434.266 334.248 436.072 335.58 437.404C336.913 438.737 338.719 439.487 340.603 439.49H592.019C593.904 439.487 595.71 438.737 597.042 437.404C598.375 436.072 599.125 434.266 599.128 432.381V78.9793C599.125 77.095 598.375 75.2888 597.042 73.9564C595.71 72.6239 593.904 71.8739 592.019 71.8704H340.603Z" fill="#EBEBEB"/>
<path d="M149.401 404.946C148.265 392.979 137.707 388.714 125.323 390.232C112.939 391.75 103.444 398.484 104.558 410.452L149.401 404.946Z" fill="#6464AC"/>
<path d="M124.893 384.989C130.575 384.289 132.279 378.677 131.651 372.089C131.023 365.501 128.26 360.43 122.599 361.118C116.938 361.806 115.213 367.43 115.841 374.018C116.469 380.606 119.21 385.677 124.893 384.989Z" fill="#6464AC"/>
<path d="M442.81 141.918C442.934 143.314 442.64 144.715 441.967 145.944C441.294 147.173 440.272 148.175 439.029 148.823C437.787 149.471 436.38 149.735 434.987 149.584C433.594 149.432 432.277 148.87 431.203 147.969C430.13 147.069 429.347 145.87 428.955 144.525C428.563 143.179 428.579 141.748 429 140.411C429.422 139.075 430.23 137.894 431.324 137.017C432.417 136.14 433.745 135.608 435.141 135.486C437.011 135.324 438.869 135.91 440.306 137.116C441.744 138.322 442.645 140.049 442.81 141.918Z" fill="#6464AC"/>
<path d="M481.961 138.455C482.082 139.848 481.787 141.245 481.114 142.471C480.441 143.696 479.419 144.694 478.178 145.339C476.938 145.984 475.534 146.247 474.144 146.093C472.754 145.94 471.441 145.379 470.37 144.479C469.3 143.58 468.52 142.383 468.129 141.04C467.739 139.698 467.755 138.27 468.177 136.936C468.598 135.603 469.405 134.425 470.496 133.55C471.587 132.675 472.913 132.144 474.306 132.023C476.173 131.864 478.027 132.452 479.462 133.657C480.897 134.863 481.796 136.588 481.961 138.455Z" fill="#6464AC"/>
<path d="M521.125 135.03C521.249 136.426 520.956 137.827 520.283 139.057C519.61 140.286 518.587 141.288 517.345 141.935C516.102 142.583 514.695 142.848 513.302 142.696C511.909 142.544 510.592 141.982 509.519 141.082C508.445 140.181 507.663 138.982 507.27 137.637C506.878 136.292 506.894 134.86 507.315 133.524C507.737 132.187 508.546 131.006 509.639 130.129C510.732 129.253 512.061 128.72 513.457 128.598C515.326 128.436 517.184 129.022 518.622 130.228C520.06 131.434 520.96 133.161 521.125 135.03Z" fill="#6464AC"/>
<path d="M446.3 181.785C446.423 183.181 446.13 184.582 445.457 185.811C444.784 187.041 443.761 188.042 442.519 188.69C441.276 189.338 439.869 189.603 438.476 189.451C437.083 189.299 435.766 188.737 434.693 187.837C433.619 186.936 432.837 185.737 432.444 184.392C432.052 183.047 432.068 181.615 432.49 180.279C432.911 178.942 433.72 177.761 434.813 176.884C435.906 176.008 437.235 175.475 438.631 175.353C440.5 175.191 442.358 175.777 443.796 176.983C445.234 178.189 446.134 179.916 446.3 181.785Z" fill="#6464AC"/>
<path d="M485.451 178.374C485.572 179.767 485.277 181.165 484.603 182.39C483.93 183.615 482.908 184.614 481.668 185.259C480.427 185.903 479.023 186.166 477.633 186.013C476.243 185.86 474.93 185.298 473.86 184.398C472.789 183.499 472.009 182.302 471.619 180.96C471.228 179.617 471.245 178.189 471.666 176.856C472.087 175.522 472.894 174.344 473.985 173.469C475.076 172.595 476.402 172.063 477.795 171.942C478.72 171.862 479.652 171.964 480.537 172.244C481.423 172.524 482.244 172.975 482.955 173.572C483.666 174.17 484.252 174.901 484.68 175.725C485.109 176.549 485.37 177.449 485.451 178.374Z" fill="#6464AC"/>
<path d="M524.615 174.937C524.738 176.333 524.445 177.734 523.772 178.963C523.099 180.192 522.077 181.194 520.834 181.842C519.591 182.49 518.185 182.754 516.791 182.602C515.398 182.45 514.082 181.888 513.008 180.988C511.934 180.087 511.152 178.889 510.76 177.543C510.368 176.198 510.383 174.767 510.805 173.43C511.226 172.094 512.035 170.912 513.128 170.036C514.221 169.159 515.55 168.626 516.946 168.505C518.816 168.342 520.673 168.928 522.111 170.134C523.549 171.34 524.449 173.067 524.615 174.937Z" fill="#6464AC"/>
<path d="M449.789 221.705C449.91 223.098 449.615 224.495 448.942 225.721C448.268 226.946 447.247 227.944 446.006 228.589C444.765 229.234 443.361 229.496 441.971 229.343C440.582 229.19 439.268 228.628 438.198 227.729C437.127 226.83 436.347 225.633 435.957 224.29C435.566 222.948 435.583 221.519 436.004 220.186C436.425 218.853 437.232 217.674 438.323 216.8C439.414 215.925 440.74 215.394 442.133 215.273C443.059 215.19 443.991 215.292 444.877 215.571C445.763 215.85 446.585 216.301 447.297 216.899C448.008 217.496 448.594 218.228 449.022 219.053C449.45 219.878 449.71 220.779 449.789 221.705Z" fill="#F5F5F5"/>
<path d="M488.953 218.267C489.077 219.663 488.783 221.064 488.11 222.293C487.437 223.523 486.415 224.524 485.172 225.172C483.93 225.82 482.523 226.085 481.13 225.933C479.737 225.781 478.42 225.219 477.346 224.319C476.273 223.418 475.49 222.219 475.098 220.874C474.706 219.529 474.721 218.097 475.143 216.761C475.565 215.424 476.373 214.243 477.466 213.366C478.56 212.49 479.888 211.957 481.284 211.835C483.154 211.673 485.012 212.259 486.449 213.465C487.887 214.671 488.788 216.398 488.953 218.267Z" fill="#F5F5F5"/>
<path d="M528.104 214.83C528.228 216.226 527.934 217.627 527.261 218.856C526.588 220.085 525.566 221.087 524.323 221.735C523.081 222.383 521.674 222.648 520.281 222.496C518.888 222.344 517.571 221.782 516.497 220.881C515.424 219.981 514.641 218.782 514.249 217.437C513.857 216.091 513.873 214.66 514.294 213.324C514.716 211.987 515.524 210.806 516.618 209.929C517.711 209.052 519.039 208.52 520.435 208.398C522.305 208.236 524.163 208.822 525.6 210.028C527.038 211.234 527.939 212.961 528.104 214.83Z" fill="#6464AC"/>
<path d="M520.878 371.864C520.754 371.485 520.522 371.151 520.209 370.903C519.896 370.655 519.518 370.505 519.12 370.471C515.623 370.31 512.312 368.847 509.837 366.37C506.621 363.128 504.733 358.219 504.421 352.386C504.391 351.86 504.162 351.365 503.779 351.002C503.397 350.639 502.891 350.436 502.364 350.433C502.079 350.435 501.797 350.494 501.536 350.607C501.274 350.72 501.039 350.885 500.843 351.092C500.647 351.299 500.495 351.543 500.396 351.811C500.297 352.078 500.253 352.362 500.267 352.647C500.632 359.495 502.95 365.354 506.895 369.299C509.984 372.394 514.083 374.274 518.443 374.599H518.743C519.085 374.625 519.429 374.566 519.743 374.427C520.057 374.288 520.332 374.074 520.543 373.804C520.754 373.533 520.896 373.214 520.954 372.876C521.012 372.538 520.986 372.19 520.878 371.864Z" fill="#6464AC"/>
<path d="M516.712 396.85C499.46 395.339 487.013 383.582 483.081 365.224C483.018 364.948 483.012 364.663 483.063 364.385C483.114 364.107 483.22 363.842 483.376 363.606C483.531 363.37 483.733 363.168 483.969 363.012C484.205 362.856 484.47 362.749 484.748 362.698C485.274 362.605 485.817 362.717 486.263 363.013C486.709 363.309 487.024 363.765 487.143 364.287C490.672 380.783 501.739 391.355 517.089 392.696C533.911 394.168 551.97 383.101 555.212 355.212C555.268 354.668 555.535 354.168 555.957 353.82C556.378 353.471 556.92 353.303 557.464 353.35C557.74 353.373 558.009 353.45 558.254 353.579C558.499 353.707 558.716 353.883 558.892 354.097C559.068 354.31 559.2 354.557 559.279 354.822C559.358 355.088 559.383 355.366 559.352 355.641C556.24 381.942 538.95 398.79 516.712 396.85Z" fill="#6464AC"/>
<path d="M484.162 346.931C483.886 346.908 483.617 346.83 483.372 346.702C483.127 346.574 482.91 346.398 482.734 346.184C482.558 345.97 482.426 345.724 482.347 345.458C482.268 345.193 482.243 344.915 482.274 344.639C485.373 318.339 502.663 301.478 524.888 303.431C544.418 305.137 557.503 319.719 559.548 341.684C559.569 341.96 559.535 342.237 559.448 342.499C559.361 342.762 559.222 343.005 559.04 343.213C558.859 343.422 558.637 343.592 558.389 343.714C558.141 343.836 557.871 343.907 557.595 343.923C557.051 343.949 556.519 343.762 556.111 343.402C555.703 343.043 555.45 342.539 555.407 341.996C553.519 322.206 541.84 309.095 524.537 307.585C507.78 306.113 489.643 317.167 486.414 345.03C486.391 345.303 486.315 345.568 486.189 345.812C486.063 346.055 485.891 346.271 485.682 346.447C485.473 346.624 485.231 346.757 484.97 346.84C484.709 346.923 484.434 346.954 484.162 346.931Z" fill="#6464AC"/>
<path d="M517.558 385.691C514.465 385.443 511.434 384.687 508.587 383.452C508.322 383.336 508.083 383.166 507.887 382.952C507.691 382.739 507.541 382.488 507.446 382.214C507.352 381.94 507.316 381.649 507.34 381.36C507.363 381.071 507.447 380.79 507.585 380.536C507.829 380.088 508.23 379.747 508.711 379.579C509.192 379.41 509.719 379.426 510.189 379.624C512.903 380.79 515.805 381.46 518.756 381.603C531.502 382.332 544.965 373.296 546.293 351.475C547.1 338.025 542.491 327.167 533.898 321.972C533.453 321.702 533.125 321.277 532.978 320.778C532.831 320.279 532.876 319.744 533.104 319.276C533.233 319.018 533.415 318.789 533.636 318.604C533.858 318.418 534.115 318.281 534.392 318.199C534.669 318.117 534.96 318.093 535.247 318.128C535.534 318.164 535.81 318.258 536.059 318.404C546.02 324.419 551.358 336.632 550.447 351.722C549.145 372.763 536.046 386.772 518.508 385.77L517.558 385.691Z" fill="#6464AC"/>
<path d="M499.017 372.711C498.778 372.873 498.507 372.984 498.223 373.037C497.938 373.09 497.646 373.084 497.364 373.02C497.082 372.955 496.816 372.833 496.583 372.661C496.35 372.489 496.155 372.271 496.01 372.021C492.151 364.845 490.455 356.704 491.127 348.585C492.351 328.443 504.421 314.733 520.813 314.498C521.102 314.492 521.388 314.546 521.655 314.656C521.922 314.767 522.163 314.931 522.364 315.139C522.564 315.346 522.72 315.593 522.82 315.864C522.921 316.135 522.964 316.423 522.948 316.712C522.916 317.232 522.689 317.722 522.313 318.084C521.937 318.445 521.439 318.653 520.917 318.665C508.756 318.899 496.544 328.091 495.294 348.832C494.662 356.161 496.173 363.516 499.642 370.002C499.903 370.453 499.984 370.985 499.868 371.493C499.752 372 499.448 372.444 499.017 372.737V372.711Z" fill="#6464AC"/>
<path d="M527.479 371.07C527.282 370.607 527.259 370.088 527.414 369.609C527.57 369.131 527.894 368.725 528.326 368.466C533.807 365.172 537.166 358.258 537.218 349.913C537.218 343.233 535.33 337.583 531.763 334.002C530.377 332.629 528.726 331.554 526.911 330.842C525.095 330.13 523.153 329.797 521.204 329.862C514.785 329.862 509.577 333.39 506.699 339.588C506.477 340.059 506.086 340.429 505.604 340.624C505.121 340.82 504.582 340.826 504.095 340.642C503.824 340.542 503.576 340.386 503.368 340.185C503.159 339.983 502.995 339.741 502.885 339.473C502.774 339.205 502.721 338.918 502.728 338.628C502.735 338.338 502.801 338.053 502.924 337.791C506.491 330.2 513.17 325.708 521.152 325.695C523.652 325.631 526.139 326.073 528.464 326.995C530.789 327.917 532.903 329.299 534.679 331.06C539.041 335.434 541.411 342.14 541.359 349.952C541.28 359.782 537.14 368.036 530.396 372.086C530.14 372.225 529.859 372.309 529.569 372.333C529.279 372.357 528.987 372.32 528.712 372.225C528.438 372.129 528.186 371.977 527.974 371.778C527.761 371.579 527.593 371.338 527.479 371.07Z" fill="#6464AC"/>
<path d="M512.48 355.693C512.202 355.807 511.903 355.859 511.603 355.845C511.303 355.832 511.009 355.754 510.742 355.617C510.475 355.48 510.241 355.286 510.055 355.05C509.87 354.814 509.738 354.54 509.668 354.248C509.525 353.688 509.42 353.102 509.329 352.504C508.145 344.692 512.337 337.934 519.068 336.723C520.636 336.382 522.261 336.413 523.814 336.814C525.368 337.214 526.806 337.972 528.013 339.028C528.24 339.229 528.418 339.479 528.534 339.759C528.651 340.039 528.703 340.341 528.687 340.644C528.671 340.947 528.586 341.242 528.441 341.508C528.295 341.773 528.091 342.003 527.844 342.179L527.714 342.27C527.323 342.541 526.851 342.67 526.377 342.635C525.903 342.599 525.455 342.401 525.11 342.075C524.379 341.458 523.516 341.019 522.587 340.794C521.659 340.568 520.69 340.56 519.758 340.773C514.628 341.697 512.675 347.035 513.405 351.827C513.483 352.295 513.561 352.751 513.678 353.129C513.804 353.619 513.748 354.138 513.52 354.591C513.293 355.043 512.91 355.398 512.441 355.589L512.48 355.693Z" fill="#6464AC"/>
<path d="M519.368 363.714C519.039 363.682 518.725 363.566 518.453 363.379C518.182 363.191 517.963 362.937 517.817 362.641C517.671 362.346 517.603 362.017 517.619 361.688C517.635 361.358 517.735 361.038 517.91 360.758L518.092 360.472C518.279 360.173 518.544 359.932 518.858 359.773C519.173 359.615 519.525 359.546 519.876 359.573C520.529 359.611 521.184 359.571 521.829 359.456C526.307 358.649 528.339 354.483 528.339 350.238C528.326 349.728 528.498 349.231 528.824 348.838C529.149 348.446 529.606 348.184 530.109 348.103C530.398 348.059 530.693 348.076 530.975 348.153C531.257 348.23 531.519 348.366 531.745 348.552C531.971 348.737 532.156 348.968 532.287 349.229C532.418 349.491 532.492 349.777 532.505 350.069C532.622 356.865 528.599 362.477 522.571 363.558C521.515 363.753 520.438 363.805 519.368 363.714Z" fill="#6464AC"/>
<path d="M520.292 356.019C519.241 355.93 518.243 355.515 517.44 354.831C516.637 354.147 516.068 353.228 515.813 352.204C515.74 351.915 515.736 351.613 515.803 351.322C515.87 351.032 516.005 350.761 516.197 350.533C516.39 350.306 516.633 350.127 516.909 350.012C517.184 349.897 517.482 349.85 517.779 349.873H518.261C518.626 349.912 518.971 350.055 519.255 350.286C519.54 350.517 519.751 350.826 519.863 351.175C519.908 351.357 520.009 351.52 520.151 351.641C520.294 351.762 520.47 351.836 520.657 351.852C521.659 351.944 521.829 350.55 521.855 350.212C521.915 349.705 521.82 349.192 521.581 348.741C521.222 348.306 521.036 347.754 521.06 347.191C521.093 346.778 521.249 346.383 521.508 346.059C521.766 345.734 522.116 345.494 522.512 345.37C522.908 345.245 523.332 345.242 523.73 345.36C524.128 345.478 524.481 345.712 524.745 346.033C525.761 347.316 526.229 348.949 526.047 350.577C525.709 354.001 523.3 356.279 520.292 356.019Z" fill="#6464AC"/>
<path d="M481.128 309.42C480.856 309.397 480.591 309.321 480.348 309.195C480.106 309.069 479.891 308.897 479.715 308.687C479.54 308.478 479.407 308.236 479.326 307.975C479.244 307.714 479.215 307.44 479.24 307.168L480.816 289.109L498.874 290.698C499.147 290.72 499.412 290.797 499.654 290.923C499.897 291.049 500.112 291.221 500.287 291.431C500.463 291.64 500.595 291.882 500.677 292.143C500.758 292.404 500.787 292.678 500.762 292.95C500.739 293.223 500.663 293.488 500.537 293.731C500.411 293.975 500.239 294.191 500.03 294.367C499.821 294.544 499.579 294.677 499.318 294.76C499.057 294.843 498.783 294.874 498.51 294.851L484.604 293.627L483.394 307.532C483.369 307.805 483.291 308.07 483.164 308.313C483.037 308.556 482.863 308.771 482.652 308.946C482.442 309.122 482.199 309.254 481.937 309.335C481.676 309.416 481.401 309.445 481.128 309.42Z" fill="#6464AC"/>
<path d="M566.969 316.933C566.697 316.91 566.432 316.833 566.189 316.708C565.947 316.582 565.731 316.409 565.556 316.2C565.38 315.99 565.248 315.748 565.167 315.488C565.085 315.227 565.056 314.952 565.081 314.68L566.292 300.775L552.387 299.564C552.114 299.54 551.848 299.462 551.606 299.334C551.363 299.207 551.148 299.033 550.973 298.823C550.797 298.613 550.665 298.37 550.584 298.108C550.503 297.846 550.474 297.571 550.499 297.299C550.522 297.026 550.598 296.761 550.724 296.519C550.85 296.276 551.022 296.061 551.232 295.886C551.441 295.71 551.683 295.578 551.944 295.496C552.205 295.415 552.479 295.386 552.751 295.411L570.81 296.986L569.234 315.084C569.175 315.628 568.904 316.127 568.481 316.473C568.057 316.819 567.514 316.984 566.969 316.933Z" fill="#6464AC"/>
<path d="M560.576 414.036L542.517 412.461C542.244 412.436 541.979 412.358 541.737 412.231C541.494 412.104 541.279 411.93 541.103 411.719C540.928 411.509 540.796 411.266 540.715 411.005C540.633 410.743 540.604 410.468 540.629 410.195C540.652 409.923 540.729 409.658 540.855 409.415C540.981 409.173 541.153 408.958 541.363 408.782C541.572 408.607 541.814 408.474 542.075 408.393C542.335 408.311 542.61 408.282 542.882 408.307L556.787 409.518L557.998 395.626C558.021 395.352 558.098 395.085 558.224 394.841C558.351 394.597 558.524 394.38 558.735 394.204C558.946 394.027 559.189 393.894 559.451 393.811C559.714 393.729 559.99 393.7 560.264 393.725C560.536 393.748 560.801 393.824 561.043 393.95C561.286 394.076 561.501 394.249 561.677 394.458C561.852 394.667 561.984 394.909 562.066 395.17C562.147 395.431 562.176 395.705 562.151 395.977L560.576 414.036Z" fill="#6464AC"/>
<path d="M488.641 407.708L470.582 406.12L472.157 388.074C472.21 387.524 472.477 387.016 472.901 386.66C473.325 386.305 473.871 386.13 474.423 386.173C474.696 386.198 474.961 386.276 475.203 386.403C475.446 386.53 475.661 386.704 475.837 386.914C476.012 387.125 476.144 387.368 476.225 387.629C476.307 387.891 476.336 388.166 476.311 388.439L475.1 402.318L488.992 403.542C489.265 403.565 489.53 403.641 489.774 403.767C490.017 403.893 490.233 404.065 490.409 404.274C490.586 404.483 490.72 404.725 490.803 404.986C490.885 405.247 490.916 405.522 490.893 405.794C490.847 406.346 490.584 406.857 490.162 407.216C489.74 407.575 489.193 407.752 488.641 407.708Z" fill="#F0F0F0"/>
<path d="M97.2985 368.635C96.9592 368.661 96.6234 368.552 96.3631 368.333C96.1027 368.114 95.9384 367.802 95.9053 367.463L94.9418 356.37L106.035 355.394C106.374 355.368 106.71 355.477 106.97 355.696C107.231 355.915 107.395 356.227 107.428 356.566C107.45 356.903 107.34 357.235 107.121 357.493C106.903 357.75 106.592 357.913 106.256 357.946L97.7151 358.701L98.4572 367.242C98.4829 367.579 98.3763 367.913 98.16 368.173C97.9437 368.433 97.6347 368.599 97.2985 368.635Z" fill="#6464AC"/>
<path d="M150.082 364.013C149.744 364.039 149.41 363.932 149.15 363.716C148.89 363.5 148.725 363.191 148.688 362.854L147.946 354.3L139.392 355.055C139.053 355.081 138.717 354.972 138.457 354.753C138.196 354.534 138.032 354.222 137.999 353.884C137.974 353.544 138.082 353.209 138.301 352.948C138.52 352.688 138.832 352.524 139.171 352.49L150.264 351.527L151.24 362.62C151.266 362.957 151.159 363.291 150.943 363.551C150.727 363.811 150.418 363.977 150.082 364.013Z" fill="#6464AC"/>
<path d="M155.55 411.81L144.444 412.786C144.105 412.812 143.769 412.703 143.508 412.484C143.248 412.265 143.084 411.953 143.051 411.614C143.025 411.275 143.134 410.939 143.353 410.679C143.572 410.419 143.884 410.254 144.223 410.221L152.764 409.479L152.022 400.938C151.996 400.601 152.103 400.267 152.319 400.007C152.535 399.747 152.844 399.581 153.18 399.545C153.518 399.519 153.852 399.626 154.112 399.842C154.372 400.058 154.537 400.367 154.573 400.704L155.55 411.81Z" fill="#6464AC"/>
<path d="M111.308 415.677L100.254 416.64L99.2775 405.534C99.2556 405.197 99.3656 404.864 99.5843 404.607C99.8029 404.349 100.113 404.187 100.449 404.154C100.784 404.132 101.115 404.24 101.372 404.456C101.629 404.672 101.793 404.979 101.829 405.313L102.585 413.867L111.126 413.112C111.465 413.086 111.801 413.195 112.061 413.414C112.321 413.633 112.486 413.945 112.519 414.283C112.531 414.454 112.51 414.626 112.455 414.789C112.401 414.952 112.315 415.102 112.203 415.232C112.09 415.361 111.953 415.467 111.8 415.543C111.646 415.62 111.479 415.665 111.308 415.677Z" fill="#6464AC"/>
<path d="M149.183 183.582L106.764 187.228L105.892 177.293C105.828 172.552 107.559 167.962 110.738 164.444C113.918 160.926 118.309 158.74 123.033 158.325C127.756 157.91 132.462 159.296 136.206 162.206C139.95 165.115 142.456 169.333 143.22 174.012L143.715 179.793L149.847 179.259L149.339 173.479C149.054 170.218 148.129 167.045 146.617 164.142C145.106 161.239 143.037 158.662 140.53 156.558C138.022 154.455 135.125 152.866 132.003 151.882C128.881 150.898 125.597 150.538 122.336 150.824C115.751 151.4 109.665 154.569 105.416 159.633C103.312 162.141 101.723 165.038 100.739 168.16C99.7551 171.282 99.3956 174.567 99.6811 177.827L100.553 187.827C98.138 188.299 95.9827 189.648 94.5021 191.615C93.0215 193.581 92.3202 196.025 92.5331 198.477L95.5668 233.162C95.675 234.471 96.0408 235.746 96.643 236.913C97.2453 238.081 98.0723 239.118 99.0764 239.965C100.081 240.811 101.242 241.452 102.494 241.848C103.747 242.245 105.065 242.39 106.373 242.276L153.935 238.123C155.245 238.015 156.519 237.649 157.687 237.047C158.854 236.444 159.891 235.617 160.738 234.613C161.585 233.609 162.225 232.448 162.622 231.195C163.018 229.943 163.164 228.625 163.049 227.316L160.016 192.631C159.9 191.325 159.527 190.055 158.92 188.893C158.312 187.732 157.482 186.701 156.476 185.861C155.469 185.02 154.307 184.386 153.056 183.995C151.805 183.604 150.489 183.464 149.183 183.582ZM131.137 210.312L132.179 222.251C132.249 222.732 132.22 223.222 132.095 223.691C131.969 224.16 131.749 224.598 131.447 224.979C131.146 225.36 130.77 225.675 130.343 225.906C129.916 226.137 129.446 226.278 128.962 226.32C128.478 226.363 127.991 226.306 127.53 226.154C127.069 226.001 126.644 225.757 126.28 225.434C125.917 225.112 125.624 224.719 125.418 224.279C125.212 223.839 125.098 223.362 125.083 222.876L124.042 210.924C122.967 210.264 122.129 209.283 121.645 208.119C121.161 206.955 121.057 205.668 121.347 204.441C121.638 203.215 122.308 202.111 123.262 201.287C124.216 200.463 125.405 199.962 126.661 199.853C127.917 199.745 129.175 200.036 130.256 200.684C131.337 201.332 132.186 202.305 132.682 203.464C133.178 204.623 133.296 205.908 133.018 207.138C132.741 208.368 132.083 209.478 131.137 210.312Z" fill="#6464AC"/>
<path d="M258.7 183.854L251.779 188.292C252.134 190.444 252.183 192.635 251.923 194.8L259.008 198.941L258.805 199.766C258.133 202.566 257.084 205.262 255.687 207.779L255.287 208.518L247.645 206.876C247.497 206.845 247.356 206.784 247.232 206.697C247.107 206.611 247.001 206.5 246.92 206.373C246.838 206.245 246.783 206.102 246.757 205.953C246.731 205.803 246.734 205.65 246.768 205.502C246.833 205.206 247.012 204.947 247.267 204.782C247.522 204.618 247.832 204.562 248.129 204.626L254.083 205.927C255.05 204.054 255.819 202.086 256.376 200.054L249.436 196.015L249.549 195.244C249.886 192.803 249.831 190.325 249.387 187.902L249.24 187.15L255.994 182.807C255.352 180.8 254.498 178.867 253.444 177.042L245.676 179.076L245.206 178.462C243.946 176.793 242.462 175.305 240.798 174.04C240.558 173.864 240.396 173.603 240.346 173.31C240.296 173.017 240.361 172.716 240.529 172.47C240.614 172.342 240.724 172.232 240.853 172.148C240.982 172.063 241.127 172.006 241.278 171.979C241.43 171.953 241.586 171.958 241.736 171.993C241.886 172.029 242.027 172.095 242.15 172.187C243.794 173.43 245.278 174.872 246.569 176.478L254.506 174.388L254.939 175.121C256.443 177.571 257.61 180.213 258.407 182.975L258.7 183.854ZM244.001 210.512C243.605 210.873 243.183 211.234 242.722 211.583L244.812 219.519L244.093 219.965C241.634 221.462 238.989 222.628 236.225 223.434L235.41 223.66L230.96 216.765C228.808 217.121 226.617 217.169 224.451 216.909L220.323 223.994L219.486 223.804C216.694 223.121 214.004 222.073 211.486 220.687L210.734 220.273L212.471 212.252C210.698 210.958 209.105 209.434 207.735 207.72L201.727 209.299C201.433 209.376 201.121 209.333 200.859 209.18C200.597 209.027 200.406 208.777 200.328 208.483C200.29 208.339 200.281 208.188 200.302 208.04C200.322 207.892 200.372 207.749 200.448 207.621C200.524 207.492 200.624 207.379 200.744 207.29C200.863 207.2 200.999 207.135 201.144 207.098L208.628 205.122L209.084 205.737C210.571 207.71 212.369 209.43 214.406 210.828L215.041 211.27L213.352 219.121C215.222 220.093 217.191 220.861 219.224 221.414L223.265 214.487L224.022 214.588C226.46 214.969 228.945 214.914 231.364 214.425L232.129 214.291L236.472 221.032C238.474 220.388 240.402 219.534 242.224 218.483L240.189 210.714L240.804 210.244C241.385 209.827 241.945 209.38 242.481 208.905C242.687 208.7 242.964 208.582 243.255 208.575C243.545 208.569 243.828 208.675 244.043 208.871C244.151 208.979 244.237 209.109 244.294 209.251C244.351 209.394 244.378 209.547 244.374 209.7C244.37 209.854 244.335 210.005 244.271 210.145C244.207 210.284 244.115 210.409 244.001 210.512ZM243.609 163.976L242.972 166.934C242.907 167.23 242.728 167.489 242.472 167.653C242.217 167.818 241.907 167.874 241.611 167.81C241.314 167.746 241.055 167.566 240.891 167.311C240.726 167.056 240.67 166.746 240.734 166.449L241.005 165.141C239.138 164.176 237.174 163.412 235.146 162.861L231.106 169.788L230.335 169.674C227.897 169.293 225.411 169.348 222.993 169.837L222.241 169.984L217.898 163.243C215.892 163.88 213.959 164.73 212.133 165.779L214.167 173.548L213.552 174.005C211.582 175.495 209.863 177.292 208.461 179.327L208.032 179.961L200.181 178.273C199.214 180.143 198.449 182.111 197.901 184.144L204.894 188.222L204.78 188.98C204.444 191.42 204.498 193.899 204.943 196.322L205.09 197.087L198.309 201.391L198.561 202.167C198.658 202.443 198.644 202.746 198.521 203.012C198.398 203.277 198.176 203.484 197.902 203.588C197.76 203.645 197.609 203.673 197.457 203.671C197.304 203.668 197.154 203.636 197.014 203.574C196.875 203.513 196.749 203.425 196.644 203.314C196.539 203.204 196.457 203.074 196.403 202.931C196.208 202.362 196.026 201.78 195.857 201.211L195.617 200.396L202.525 195.945C202.157 193.795 202.108 191.602 202.381 189.437L195.283 185.309L195.486 184.471C196.166 181.678 197.215 178.988 198.604 176.471L199.017 175.72L207.039 177.457C208.33 175.681 209.854 174.088 211.57 172.72L209.48 164.783L210.213 164.337C212.665 162.836 215.306 161.669 218.067 160.869L218.896 160.629L223.333 167.537C225.483 167.165 227.677 167.117 229.841 167.393L233.982 160.295L234.807 160.498C237.605 161.176 240.3 162.224 242.82 163.616L243.609 163.976ZM238.321 192.197C238.272 195.036 237.154 197.752 235.191 199.803C233.228 201.855 230.565 203.092 227.731 203.267C224.943 203.406 222.204 202.496 220.053 200.717C217.902 198.937 216.495 196.417 216.11 193.652C216.086 193.49 216.097 193.325 216.142 193.167C216.186 193.009 216.264 192.863 216.37 192.738C216.475 192.612 216.606 192.511 216.754 192.439C216.902 192.368 217.063 192.329 217.226 192.325C217.503 192.32 217.772 192.417 217.983 192.597C218.193 192.778 218.33 193.028 218.368 193.303C218.631 195.227 219.518 197.011 220.893 198.382C222.268 199.754 224.055 200.635 225.98 200.892C227.905 201.149 229.861 200.767 231.548 199.805C233.234 198.842 234.558 197.353 235.316 195.565C236.074 193.777 236.225 191.79 235.744 189.909C235.263 188.027 234.178 186.356 232.655 185.151C231.133 183.946 229.256 183.274 227.315 183.238C225.373 183.203 223.474 183.806 221.908 184.955C221.686 185.12 221.41 185.197 221.135 185.169C220.86 185.142 220.605 185.012 220.42 184.805C220.31 184.686 220.226 184.545 220.174 184.391C220.122 184.237 220.103 184.074 220.12 183.912C220.136 183.75 220.186 183.594 220.267 183.453C220.349 183.312 220.459 183.19 220.591 183.096C222.258 181.874 224.233 181.14 226.294 180.977C228.355 180.813 230.421 181.226 232.26 182.169C234.1 183.112 235.641 184.548 236.711 186.317C237.782 188.085 238.339 190.117 238.321 192.184L238.321 192.197Z" fill="#6464AC"/>
<path d="M141.02 298.926L138.246 294.408C136.844 294.617 135.418 294.617 134.015 294.408L131.242 298.926L130.708 298.783C128.91 298.309 127.185 297.595 125.578 296.661L125.109 296.387L126.281 291.466C126.327 291.277 126.446 291.113 126.612 291.011C126.777 290.909 126.977 290.876 127.166 290.919C127.261 290.942 127.351 290.983 127.43 291.041C127.509 291.098 127.576 291.171 127.626 291.254C127.677 291.338 127.711 291.431 127.726 291.527C127.741 291.624 127.736 291.722 127.713 291.817L126.802 295.645C127.996 296.299 129.258 296.823 130.565 297.208L133.273 292.794L133.754 292.872C135.328 293.132 136.933 293.132 138.507 292.872L138.989 292.794L141.71 297.208C143.009 296.815 144.266 296.292 145.459 295.645L144.262 290.619L144.665 290.32C145.76 289.533 146.741 288.6 147.582 287.547C147.696 287.392 147.867 287.289 148.057 287.259C148.248 287.23 148.442 287.277 148.597 287.39C148.677 287.447 148.745 287.52 148.797 287.603C148.849 287.686 148.884 287.779 148.899 287.876C148.915 287.973 148.911 288.072 148.889 288.167C148.866 288.263 148.824 288.353 148.767 288.432C147.937 289.476 146.984 290.416 145.928 291.231L147.23 296.439L146.748 296.713C145.142 297.649 143.417 298.363 141.619 298.835L141.02 298.926ZM124.016 289.044L123.338 288.224L118.13 289.448L117.857 288.979C116.94 287.365 116.244 285.635 115.787 283.836L115.644 283.302L120.162 280.529C119.953 279.126 119.953 277.7 120.162 276.297L115.644 273.524L115.787 272.99C116.259 271.192 116.973 269.466 117.909 267.86L118.183 267.379L123.391 268.681C124.228 267.541 125.203 266.509 126.294 265.608L125.37 261.702C125.346 261.608 125.342 261.51 125.357 261.414C125.372 261.319 125.406 261.227 125.457 261.145C125.508 261.062 125.575 260.991 125.654 260.934C125.733 260.878 125.822 260.838 125.916 260.817C126.106 260.773 126.305 260.807 126.471 260.909C126.637 261.011 126.755 261.174 126.802 261.363L127.974 266.22L127.557 266.519C126.267 267.445 125.136 268.575 124.211 269.866L123.911 270.269L118.886 269.071C118.239 270.265 117.716 271.521 117.323 272.821L121.737 275.529L121.659 276.024C121.525 276.807 121.455 277.599 121.451 278.394C121.455 279.192 121.525 279.989 121.659 280.776L121.737 281.258L117.323 283.966C117.713 285.271 118.237 286.532 118.886 287.729L123.911 286.518L124.211 286.922C124.48 287.307 124.771 287.677 125.083 288.028C125.211 288.164 125.283 288.343 125.283 288.53C125.283 288.716 125.211 288.896 125.083 289.031C125.016 289.105 124.934 289.165 124.843 289.206C124.751 289.247 124.652 289.269 124.552 289.27C124.452 289.271 124.353 289.252 124.26 289.213C124.168 289.174 124.085 289.116 124.016 289.044ZM154.079 289.448L152.178 289.005C152.083 288.982 151.993 288.941 151.914 288.883C151.835 288.825 151.769 288.753 151.718 288.669C151.667 288.586 151.633 288.493 151.618 288.397C151.603 288.3 151.608 288.201 151.631 288.107C151.652 288.012 151.692 287.923 151.749 287.844C151.805 287.765 151.876 287.698 151.959 287.647C152.041 287.596 152.133 287.562 152.229 287.547C152.324 287.532 152.422 287.537 152.516 287.56L153.337 287.755C153.991 286.56 154.515 285.299 154.899 283.992L150.485 281.284L150.563 280.802C150.698 280.015 150.767 279.218 150.772 278.42C150.767 277.625 150.698 276.833 150.563 276.05L150.485 275.555L154.899 272.847C154.512 271.545 153.989 270.288 153.337 269.097L148.311 270.295L148.011 269.892C147.086 268.601 145.956 267.471 144.665 266.545L144.262 266.246L145.459 261.22C144.268 260.568 143.011 260.044 141.71 259.658L138.989 264.072L138.507 263.993C136.933 263.733 135.328 263.733 133.754 263.993L133.273 264.072L130.565 259.658L130.057 259.814C129.875 259.872 129.679 259.857 129.508 259.772C129.338 259.687 129.208 259.538 129.145 259.358C129.11 259.267 129.094 259.17 129.097 259.072C129.101 258.974 129.124 258.878 129.165 258.789C129.206 258.701 129.265 258.621 129.338 258.556C129.41 258.49 129.496 258.44 129.588 258.408L130.708 258.069L131.242 257.939L134.015 262.457C135.418 262.249 136.844 262.249 138.246 262.457L141.02 257.939L141.553 258.069C143.35 258.552 145.075 259.27 146.683 260.205L147.165 260.478L145.863 265.686C146.984 266.553 147.99 267.56 148.858 268.681L154.066 267.379L154.339 267.86C155.275 269.466 155.989 271.192 156.461 272.99L156.605 273.524L152.087 276.297C152.295 277.7 152.295 279.126 152.087 280.529L156.605 283.302L156.461 283.836C155.987 285.633 155.273 287.359 154.339 288.966L154.079 289.448ZM135.929 285.633C134.16 285.511 132.497 284.743 131.259 283.473C130.021 282.204 129.293 280.523 129.216 278.751C129.139 276.979 129.717 275.241 130.84 273.869C131.963 272.496 133.552 271.586 135.304 271.311C135.408 271.3 135.514 271.311 135.614 271.343C135.714 271.375 135.806 271.428 135.884 271.498C135.963 271.568 136.026 271.653 136.069 271.749C136.113 271.844 136.136 271.948 136.137 272.053C136.138 272.233 136.072 272.408 135.952 272.543C135.832 272.677 135.666 272.763 135.486 272.782C134.388 272.908 133.35 273.348 132.496 274.051C131.643 274.753 131.011 275.688 130.677 276.741C130.342 277.795 130.32 278.923 130.612 279.989C130.905 281.055 131.499 282.013 132.324 282.749C133.149 283.485 134.169 283.966 135.262 284.135C136.354 284.304 137.472 284.153 138.481 283.701C139.489 283.249 140.346 282.515 140.946 281.587C141.547 280.659 141.866 279.577 141.866 278.472C141.868 277.296 141.504 276.149 140.824 275.191C140.725 275.043 140.682 274.864 140.704 274.687C140.725 274.51 140.81 274.347 140.942 274.227C141.02 274.157 141.112 274.104 141.213 274.072C141.313 274.04 141.42 274.03 141.524 274.042C141.629 274.054 141.73 274.089 141.82 274.143C141.911 274.198 141.988 274.271 142.048 274.357C142.81 275.453 143.252 276.738 143.327 278.07C143.402 279.402 143.106 280.729 142.472 281.903C141.838 283.077 140.89 284.052 139.735 284.719C138.58 285.387 137.262 285.721 135.929 285.685V285.633Z" fill="#6464AC"/>
<path d="M325.445 554.477C464.866 554.477 577.89 547.879 577.89 539.739C577.89 531.599 464.866 525 325.445 525C186.023 525 73 531.599 73 539.739C73 547.879 186.023 554.477 325.445 554.477Z" fill="#6464AC"/>
<path d="M476.185 195.004H433.792L403.846 537.755H446.239C452.189 537.64 457.891 535.352 462.271 531.323C466.65 527.294 469.404 521.801 470.014 515.882L496.171 216.864C496.475 214.078 496.181 211.259 495.31 208.596C494.44 205.932 493.011 203.484 491.12 201.416C489.229 199.347 486.919 197.706 484.344 196.6C481.768 195.494 478.987 194.95 476.185 195.004Z" fill="#4F00B3"/>
<path d="M467.54 195.004H324.059C318.109 195.115 312.405 197.4 308.023 201.427C303.641 205.454 300.884 210.945 300.272 216.864L274.115 515.882C273.813 518.666 274.108 521.482 274.978 524.144C275.848 526.805 277.274 529.251 279.161 531.32C281.049 533.388 283.355 535.032 285.926 536.141C288.497 537.251 291.274 537.801 294.074 537.755H437.542C443.484 537.628 449.175 535.335 453.546 531.307C457.917 527.279 460.666 521.794 461.277 515.882L487.434 216.864C487.737 214.086 487.446 211.275 486.581 208.618C485.715 205.961 484.295 203.517 482.414 201.451C480.533 199.384 478.234 197.74 475.67 196.629C473.105 195.517 470.334 194.963 467.54 195.004Z" fill="#4F00B3"/>
<path opacity="0.3" d="M467.54 195.004H324.059C318.109 195.115 312.405 197.4 308.023 201.427C303.641 205.454 300.884 210.945 300.272 216.864L274.115 515.882C273.813 518.666 274.108 521.482 274.978 524.144C275.848 526.805 277.274 529.251 279.161 531.32C281.049 533.388 283.355 535.032 285.926 536.141C288.497 537.251 291.274 537.801 294.074 537.755H437.542C443.484 537.628 449.175 535.335 453.546 531.307C457.917 527.279 460.666 521.794 461.277 515.882L487.434 216.864C487.737 214.086 487.446 211.275 486.581 208.618C485.715 205.961 484.295 203.517 482.414 201.451C480.533 199.384 478.234 197.74 475.67 196.629C473.105 195.517 470.334 194.963 467.54 195.004Z" fill="white"/>
<path opacity="0.4" d="M466.928 202.008H429.092C427.964 202.018 426.864 202.365 425.936 203.006C425.008 203.646 424.293 204.551 423.884 205.602C422.391 209.463 419.783 212.793 416.39 215.165C412.997 217.537 408.975 218.845 404.835 218.921H382.519C378.621 219 374.817 217.717 371.763 215.293C368.71 212.868 366.597 209.455 365.788 205.641C365.573 204.609 365.003 203.685 364.178 203.029C363.353 202.372 362.325 202.025 361.271 202.047H323.447C319.403 202.119 315.526 203.67 312.548 206.408C309.571 209.145 307.7 212.879 307.29 216.903L281.119 515.921C280.91 517.814 281.107 519.73 281.696 521.541C282.286 523.353 283.255 525.017 284.539 526.424C285.823 527.832 287.392 528.949 289.142 529.701C290.892 530.454 292.782 530.825 294.686 530.789H438.167C442.212 530.715 446.09 529.161 449.067 526.421C452.044 523.681 453.915 519.946 454.324 515.921L480.482 216.903C480.695 215.009 480.502 213.091 479.915 211.278C479.328 209.464 478.36 207.797 477.077 206.387C475.794 204.977 474.225 203.857 472.475 203.102C470.725 202.347 468.834 201.974 466.928 202.008Z" fill="#FFF4F4"/>
<path d="M431.175 364.485H330.765C330.075 364.496 329.39 364.361 328.756 364.087C328.122 363.814 327.554 363.409 327.089 362.9C326.623 362.39 326.271 361.787 326.057 361.131C325.842 360.475 325.769 359.781 325.843 359.095L326.351 353.34C326.5 351.881 327.179 350.527 328.258 349.534C329.338 348.54 330.743 347.977 332.21 347.95H432.633C433.323 347.938 434.008 348.074 434.642 348.347C435.275 348.62 435.844 349.025 436.309 349.535C436.775 350.045 437.126 350.648 437.341 351.304C437.556 351.96 437.629 352.654 437.555 353.34L437.06 359.095C436.907 360.557 436.224 361.913 435.14 362.906C434.056 363.899 432.645 364.461 431.175 364.485Z" fill="white"/>
<path d="M429.014 389.223H328.59C327.901 389.235 327.217 389.099 326.583 388.826C325.95 388.552 325.382 388.147 324.918 387.637C324.454 387.127 324.103 386.524 323.89 385.868C323.677 385.212 323.606 384.518 323.682 383.833L324.177 378.078C324.329 376.62 325.008 375.267 326.087 374.275C327.166 373.282 328.57 372.718 330.036 372.688H430.459C431.149 372.676 431.834 372.812 432.467 373.085C433.101 373.358 433.67 373.763 434.135 374.273C434.6 374.783 434.952 375.386 435.167 376.042C435.381 376.697 435.454 377.392 435.38 378.078L434.873 383.833C434.721 385.291 434.041 386.643 432.962 387.636C431.884 388.628 430.479 389.193 429.014 389.223Z" fill="white"/>
<path opacity="0.1" d="M400.669 207.607C400.504 209.227 399.749 210.731 398.55 211.832C397.35 212.933 395.788 213.557 394.159 213.583C393.394 213.597 392.634 213.448 391.931 213.145C391.228 212.842 390.597 212.393 390.081 211.828C389.565 211.262 389.175 210.594 388.938 209.866C388.7 209.138 388.62 208.368 388.704 207.607C388.869 205.987 389.623 204.483 390.823 203.382C392.023 202.281 393.585 201.657 395.214 201.631C395.979 201.617 396.739 201.766 397.442 202.069C398.145 202.372 398.776 202.821 399.292 203.386C399.808 203.952 400.198 204.62 400.435 205.348C400.673 206.076 400.752 206.846 400.669 207.607Z" fill="black"/>
<path opacity="0.1" d="M397.961 207.607C397.869 208.492 397.457 209.312 396.802 209.914C396.148 210.516 395.296 210.858 394.406 210.875C393.988 210.883 393.572 210.802 393.187 210.637C392.803 210.471 392.458 210.226 392.176 209.916C391.893 209.607 391.68 209.241 391.551 208.843C391.421 208.444 391.378 208.023 391.425 207.607C391.514 206.721 391.925 205.899 392.581 205.297C393.236 204.695 394.089 204.354 394.979 204.339C395.397 204.333 395.812 204.416 396.196 204.582C396.579 204.748 396.924 204.993 397.205 205.302C397.487 205.611 397.7 205.976 397.83 206.374C397.961 206.771 398.005 207.191 397.961 207.607Z" fill="black"/>
<g opacity="0.8">
<path d="M449.26 217.58C449.035 217.584 448.812 217.539 448.606 217.45C448.4 217.36 448.215 217.228 448.063 217.062C447.912 216.896 447.798 216.699 447.728 216.486C447.658 216.272 447.634 216.046 447.658 215.823L447.945 212.62C447.993 212.146 448.213 211.707 448.563 211.386C448.914 211.064 449.37 210.882 449.846 210.875C450.069 210.872 450.291 210.916 450.496 211.005C450.701 211.094 450.885 211.225 451.037 211.389C451.188 211.554 451.302 211.749 451.373 211.961C451.444 212.173 451.469 212.397 451.447 212.62L451.161 215.823C451.113 216.297 450.893 216.738 450.543 217.062C450.193 217.386 449.737 217.57 449.26 217.58Z" fill="white"/>
<path d="M463.269 217.58C463.044 217.584 462.822 217.539 462.615 217.45C462.409 217.36 462.224 217.228 462.073 217.062C461.922 216.896 461.807 216.699 461.737 216.486C461.668 216.272 461.644 216.046 461.668 215.823L462.332 208.31C462.38 207.837 462.6 207.398 462.95 207.076C463.301 206.754 463.757 206.573 464.233 206.565C464.456 206.563 464.678 206.607 464.883 206.695C465.088 206.784 465.272 206.915 465.424 207.08C465.575 207.244 465.689 207.439 465.76 207.651C465.831 207.863 465.856 208.088 465.834 208.31L465.17 215.823C465.123 216.297 464.903 216.738 464.553 217.062C464.203 217.386 463.746 217.57 463.269 217.58Z" fill="white"/>
<path d="M456.264 217.58C456.04 217.583 455.817 217.539 455.611 217.449C455.404 217.36 455.22 217.228 455.068 217.062C454.917 216.896 454.802 216.699 454.733 216.486C454.663 216.272 454.639 216.046 454.663 215.823L455.132 210.471C455.18 209.995 455.401 209.552 455.754 209.228C456.107 208.904 456.567 208.721 457.046 208.714C457.27 208.71 457.492 208.755 457.698 208.844C457.904 208.934 458.088 209.066 458.238 209.233C458.388 209.399 458.502 209.596 458.57 209.809C458.638 210.023 458.66 210.249 458.634 210.471L458.165 215.823C458.118 216.297 457.898 216.738 457.548 217.062C457.198 217.386 456.741 217.57 456.264 217.58Z" fill="white"/>
</g>
<g opacity="0.8">
<path d="M329.306 217.58H320.505C320.378 217.583 320.252 217.559 320.136 217.509C320.02 217.459 319.915 217.384 319.83 217.29C319.745 217.197 319.681 217.086 319.642 216.965C319.604 216.844 319.592 216.717 319.606 216.591L320.01 211.865C320.039 211.596 320.164 211.348 320.363 211.165C320.562 210.983 320.821 210.88 321.091 210.875H329.892C330.019 210.872 330.145 210.897 330.261 210.947C330.378 210.997 330.482 211.071 330.567 211.165C330.652 211.259 330.716 211.37 330.755 211.491C330.793 211.611 330.806 211.739 330.791 211.865L330.374 216.591C330.351 216.859 330.229 217.109 330.032 217.292C329.834 217.475 329.576 217.578 329.306 217.58Z" fill="white"/>
<path d="M333.382 216.291C333.255 216.294 333.128 216.269 333.011 216.219C332.894 216.169 332.789 216.095 332.703 216.002C332.617 215.908 332.552 215.797 332.512 215.677C332.471 215.556 332.457 215.428 332.47 215.302L332.666 213.14C332.691 212.871 332.816 212.621 333.016 212.438C333.215 212.255 333.476 212.153 333.746 212.151C333.873 212.148 333.999 212.173 334.115 212.223C334.231 212.273 334.336 212.347 334.421 212.441C334.506 212.535 334.57 212.646 334.609 212.766C334.647 212.887 334.66 213.015 334.645 213.14L334.462 215.302C334.434 215.57 334.308 215.819 334.109 216.001C333.91 216.183 333.651 216.286 333.382 216.291Z" fill="white"/>
</g>
<path d="M414.63 326.637C432.15 309.865 433.898 283.256 418.533 267.206C403.168 251.155 376.509 251.741 358.988 268.513C341.468 285.285 339.72 311.893 355.085 327.944C370.45 343.994 397.109 343.409 414.63 326.637Z" fill="white"/>
<path d="M386.959 295.974C375.918 295.974 366.583 300.179 365.788 309.306L364.903 319.449H404.914L405.799 309.306C406.593 300.179 398.013 295.974 386.959 295.974Z" fill="#4F00B3"/>
<path d="M387.324 291.794C392.453 291.794 394.823 287.641 395.266 282.511C395.708 277.381 394.081 273.228 388.951 273.228C383.821 273.228 381.465 277.394 381.009 282.511C380.553 287.628 382.194 291.794 387.324 291.794Z" fill="#4F00B3"/>
<path d="M426.592 355.866C423.871 355.866 421.566 356.907 421.384 359.16L421.163 361.673H431.045L431.266 359.16C431.448 356.907 429.326 355.866 426.592 355.866Z" fill="#4F00B3"/>
<path d="M426.683 354.837C427.985 354.837 428.532 353.809 428.649 352.546C428.766 351.283 428.35 350.254 427.087 350.254C425.824 350.254 425.238 351.283 425.121 352.546C425.003 353.809 425.42 354.837 426.683 354.837Z" fill="#4F00B3"/>
<path d="M396.177 413.961H357.117C356.058 413.98 355.007 413.774 354.034 413.355C353.061 412.936 352.188 412.315 351.474 411.533C350.759 410.751 350.219 409.826 349.89 408.819C349.562 407.812 349.451 406.746 349.566 405.693C349.797 403.454 350.84 401.378 352.497 399.855C354.155 398.332 356.312 397.468 358.562 397.426H397.622C398.681 397.409 399.731 397.617 400.703 398.036C401.675 398.455 402.547 399.076 403.261 399.858C403.975 400.64 404.515 401.564 404.845 402.57C405.174 403.576 405.287 404.641 405.174 405.693C404.945 407.933 403.903 410.012 402.245 411.535C400.587 413.059 398.428 413.922 396.177 413.961Z" fill="#4F00B3"/>
<path d="M391.451 506.169H349.644C348.522 506.199 347.407 505.987 346.375 505.548C345.342 505.109 344.416 504.453 343.66 503.624C342.904 502.795 342.336 501.813 341.993 500.744C341.651 499.676 341.542 498.546 341.675 497.432L344.345 466.939C344.583 464.574 345.681 462.378 347.43 460.768C349.18 459.158 351.459 458.245 353.836 458.203H395.656C396.775 458.183 397.885 458.402 398.912 458.845C399.939 459.288 400.861 459.944 401.615 460.771C402.368 461.597 402.938 462.575 403.284 463.638C403.631 464.702 403.747 465.827 403.625 466.939L400.956 497.432C400.711 499.798 399.61 501.992 397.859 503.601C396.108 505.211 393.829 506.124 391.451 506.169Z" fill="#4F00B3"/>
<g opacity="0.6">
<path d="M378.561 474.634C378.629 473.969 378.556 473.296 378.345 472.662C378.134 472.027 377.791 471.444 377.338 470.952C376.885 470.459 376.333 470.069 375.717 469.806C375.102 469.543 374.439 469.413 373.77 469.426C372.345 469.447 370.978 469.988 369.925 470.947C368.872 471.906 368.206 473.218 368.054 474.634C367.971 475.426 368.089 476.227 368.396 476.961C368.703 477.696 369.19 478.342 369.812 478.84L368.9 489.347C368.856 489.745 368.897 490.148 369.02 490.529C369.144 490.91 369.348 491.26 369.618 491.555C369.888 491.851 370.218 492.086 370.586 492.244C370.954 492.402 371.351 492.48 371.752 492.472C372.6 492.454 373.413 492.126 374.036 491.55C374.66 490.975 375.051 490.191 375.137 489.347L376.061 478.84C376.759 478.363 377.344 477.739 377.776 477.013C378.207 476.287 378.475 475.475 378.561 474.634Z" fill="white"/>
</g>
<path d="M396.021 464.557H390.631L391.933 449.466C392.16 447.372 391.939 445.253 391.285 443.251C390.631 441.248 389.559 439.408 388.139 437.851C386.719 436.295 384.985 435.058 383.051 434.224C381.117 433.389 379.027 432.975 376.921 433.009C372.444 433.097 368.154 434.818 364.859 437.85C361.564 440.881 359.491 445.013 359.031 449.466L357.729 464.557H352.339L353.641 449.466C354.247 443.556 356.996 438.072 361.369 434.049C365.742 430.027 371.436 427.744 377.376 427.632C380.172 427.584 382.946 428.132 385.514 429.239C388.082 430.345 390.385 431.986 392.27 434.051C394.156 436.116 395.58 438.559 396.449 441.216C397.318 443.874 397.611 446.687 397.31 449.466L396.021 464.557Z" fill="#4F00B3"/>
<path d="M427.256 378.976L427.425 377.505C427.46 377.164 427.422 376.819 427.315 376.494C427.207 376.169 427.032 375.869 426.801 375.616C426.57 375.363 426.288 375.161 425.974 375.025C425.66 374.888 425.32 374.819 424.977 374.823C424.248 374.838 423.549 375.119 423.012 375.613C422.475 376.106 422.137 376.779 422.061 377.505L421.931 378.95C421.639 378.958 421.36 379.073 421.147 379.272C420.934 379.471 420.8 379.741 420.772 380.031L420.433 383.937C420.416 384.073 420.429 384.212 420.471 384.343C420.513 384.474 420.582 384.595 420.675 384.696C420.768 384.798 420.882 384.878 421.009 384.931C421.136 384.984 421.272 385.009 421.41 385.005H426.774C427.065 385 427.343 384.888 427.557 384.691C427.77 384.494 427.904 384.226 427.933 383.937L428.271 380.031C428.283 379.893 428.264 379.754 428.218 379.624C428.171 379.493 428.098 379.374 428.002 379.274C427.905 379.175 427.789 379.097 427.661 379.045C427.532 378.994 427.394 378.97 427.256 378.976ZM424.821 375.513C425.079 375.51 425.336 375.561 425.573 375.664C425.81 375.766 426.022 375.918 426.197 376.108C426.371 376.299 426.504 376.524 426.585 376.769C426.667 377.014 426.696 377.274 426.67 377.531L426.54 378.976H422.504L422.634 377.531C422.691 376.986 422.944 376.481 423.347 376.109C423.749 375.738 424.274 375.526 424.821 375.513Z" fill="#4F00B3"/>
<path d="M346.506 380.526L344.631 380.135C344.579 380.124 344.53 380.102 344.487 380.069C344.445 380.037 344.411 379.995 344.387 379.948C344.363 379.9 344.35 379.848 344.35 379.794C344.349 379.741 344.361 379.688 344.384 379.64L345.165 377.791C345.197 377.711 345.2 377.623 345.174 377.541C345.147 377.459 345.092 377.389 345.019 377.344C344.945 377.298 344.858 377.281 344.773 377.293C344.688 377.306 344.61 377.349 344.553 377.414L343.134 378.872C343.1 378.915 343.056 378.95 343.006 378.974C342.957 378.999 342.902 379.011 342.847 379.011C342.792 379.011 342.738 378.999 342.688 378.974C342.638 378.95 342.595 378.915 342.561 378.872L341.402 377.414C341.155 377.101 340.621 377.414 340.712 377.791L341.168 379.64C341.181 379.694 341.183 379.75 341.174 379.805C341.164 379.86 341.144 379.912 341.113 379.959C341.082 380.005 341.043 380.045 340.996 380.075C340.949 380.105 340.897 380.126 340.842 380.135L338.902 380.526C338.486 380.604 338.433 381.19 338.837 381.268L340.712 381.658C340.764 381.668 340.814 381.69 340.856 381.723C340.898 381.756 340.932 381.798 340.955 381.846C340.978 381.894 340.989 381.947 340.988 382.001C340.986 382.054 340.972 382.106 340.946 382.153L340.191 384.015C340.159 384.095 340.156 384.184 340.182 384.265C340.209 384.347 340.264 384.417 340.337 384.463C340.411 384.508 340.498 384.526 340.583 384.513C340.668 384.5 340.746 384.457 340.803 384.392L342.222 382.934C342.259 382.895 342.303 382.863 342.352 382.842C342.402 382.82 342.455 382.809 342.509 382.809C342.562 382.809 342.616 382.82 342.665 382.842C342.714 382.863 342.759 382.895 342.795 382.934L343.954 384.392C344.201 384.705 344.735 384.392 344.631 384.015L344.175 382.166C344.156 382.056 344.181 381.942 344.244 381.85C344.307 381.757 344.404 381.693 344.514 381.671L346.454 381.281C346.857 381.19 346.909 380.604 346.506 380.526Z" fill="#263238"/>
<path d="M358.823 380.526L356.948 380.135C356.896 380.124 356.847 380.102 356.804 380.069C356.762 380.037 356.728 379.995 356.704 379.948C356.68 379.9 356.667 379.848 356.667 379.794C356.666 379.741 356.678 379.688 356.7 379.64L357.482 377.791C357.514 377.711 357.517 377.623 357.491 377.541C357.464 377.459 357.409 377.389 357.335 377.344C357.262 377.298 357.175 377.281 357.09 377.293C357.005 377.306 356.927 377.349 356.87 377.414L355.451 378.872C355.416 378.915 355.373 378.95 355.323 378.974C355.274 378.999 355.219 379.011 355.164 379.011C355.109 379.011 355.055 378.999 355.005 378.974C354.955 378.95 354.912 378.915 354.878 378.872L353.719 377.414C353.472 377.101 352.938 377.414 353.042 377.791L353.498 379.64C353.509 379.695 353.509 379.751 353.498 379.806C353.487 379.861 353.465 379.913 353.433 379.959C353.402 380.006 353.361 380.045 353.314 380.075C353.267 380.105 353.214 380.126 353.159 380.135L351.219 380.526C350.802 380.604 350.75 381.19 351.154 381.268L353.029 381.658C353.081 381.669 353.13 381.691 353.172 381.724C353.215 381.756 353.249 381.798 353.273 381.845C353.297 381.893 353.309 381.946 353.31 381.999C353.311 382.052 353.299 382.105 353.276 382.153L352.495 384.002C352.463 384.082 352.459 384.171 352.486 384.252C352.513 384.334 352.568 384.404 352.641 384.45C352.715 384.495 352.802 384.513 352.887 384.5C352.972 384.487 353.05 384.444 353.107 384.379L354.526 382.921C354.563 382.882 354.607 382.85 354.656 382.829C354.706 382.807 354.759 382.796 354.813 382.796C354.866 382.796 354.92 382.807 354.969 382.829C355.018 382.85 355.062 382.882 355.099 382.921L356.258 384.379C356.505 384.692 357.039 384.379 356.948 384.002L356.492 382.153C356.481 382.099 356.48 382.044 356.49 381.989C356.501 381.935 356.521 381.884 356.552 381.838C356.582 381.792 356.621 381.752 356.667 381.721C356.712 381.691 356.764 381.669 356.818 381.658L358.758 381.268C359.174 381.19 359.226 380.604 358.823 380.526Z" fill="#263238"/>
<path d="M371.14 380.526L369.278 380.135C369.224 380.127 369.173 380.106 369.13 380.074C369.086 380.042 369.05 380 369.026 379.952C369.002 379.903 368.989 379.85 368.99 379.795C368.991 379.741 369.005 379.688 369.03 379.64L369.812 377.791C369.862 377.709 369.877 377.609 369.854 377.515C369.83 377.421 369.771 377.34 369.688 377.29C369.605 377.24 369.506 377.225 369.412 377.248C369.318 377.271 369.237 377.331 369.187 377.414L367.781 378.872C367.745 378.916 367.7 378.951 367.65 378.975C367.599 378.999 367.544 379.011 367.488 379.011C367.431 379.011 367.376 378.999 367.325 378.975C367.275 378.951 367.23 378.916 367.195 378.872L366.036 377.414C365.788 377.101 365.255 377.414 365.359 377.791L365.814 379.64C365.826 379.694 365.826 379.75 365.816 379.804C365.806 379.858 365.785 379.91 365.755 379.956C365.725 380.002 365.686 380.041 365.64 380.072C365.594 380.103 365.543 380.124 365.489 380.135L363.549 380.526C363.132 380.604 363.08 381.19 363.484 381.268L365.346 381.658C365.398 381.669 365.447 381.691 365.489 381.724C365.532 381.756 365.566 381.798 365.59 381.846C365.614 381.893 365.626 381.946 365.627 381.999C365.627 382.052 365.616 382.105 365.593 382.153L364.812 384.002C364.762 384.085 364.747 384.184 364.77 384.278C364.793 384.372 364.853 384.453 364.936 384.503C365.019 384.553 365.118 384.568 365.212 384.545C365.306 384.522 365.387 384.462 365.437 384.38L366.843 382.921C366.88 382.882 366.924 382.85 366.973 382.829C367.023 382.807 367.076 382.796 367.13 382.796C367.183 382.796 367.236 382.807 367.286 382.829C367.335 382.85 367.379 382.882 367.416 382.921L368.588 384.38C368.835 384.692 369.369 384.38 369.265 384.002L368.809 382.153C368.79 382.045 368.812 381.933 368.873 381.841C368.934 381.749 369.027 381.683 369.135 381.658L371.075 381.268C371.439 381.19 371.543 380.604 371.14 380.526Z" fill="#263238"/>
<path d="M383.47 380.526L381.595 380.135C381.543 380.124 381.493 380.102 381.451 380.069C381.409 380.037 381.375 379.995 381.351 379.948C381.327 379.9 381.314 379.848 381.314 379.794C381.313 379.741 381.325 379.688 381.347 379.64L382.129 377.791C382.161 377.711 382.164 377.623 382.137 377.541C382.111 377.459 382.056 377.389 381.982 377.344C381.909 377.298 381.822 377.281 381.737 377.293C381.651 377.306 381.573 377.349 381.517 377.414L380.097 378.872C380.063 378.915 380.02 378.95 379.97 378.974C379.921 378.999 379.866 379.011 379.811 379.011C379.756 379.011 379.701 378.999 379.652 378.974C379.602 378.95 379.559 378.915 379.525 378.872L378.366 377.414C378.118 377.101 377.585 377.414 377.676 377.791L378.131 379.64C378.145 379.694 378.147 379.75 378.137 379.805C378.128 379.86 378.107 379.912 378.077 379.959C378.046 380.005 378.006 380.045 377.96 380.075C377.913 380.105 377.861 380.126 377.806 380.135L375.866 380.526C375.449 380.604 375.397 381.19 375.866 381.268L377.741 381.658C377.793 381.668 377.843 381.69 377.885 381.723C377.927 381.756 377.961 381.798 377.984 381.846C378.007 381.894 378.018 381.947 378.016 382.001C378.015 382.054 378.001 382.106 377.975 382.153L377.207 384.002C377.174 384.082 377.171 384.171 377.198 384.252C377.225 384.334 377.28 384.404 377.353 384.45C377.427 384.495 377.514 384.513 377.599 384.5C377.684 384.487 377.762 384.444 377.819 384.379L379.238 382.921C379.275 382.882 379.319 382.85 379.368 382.829C379.418 382.807 379.471 382.796 379.525 382.796C379.578 382.796 379.632 382.807 379.681 382.829C379.73 382.85 379.774 382.882 379.811 382.921L380.97 384.379C381.217 384.692 381.751 384.379 381.647 384.002L381.191 382.153C381.172 382.043 381.197 381.929 381.26 381.837C381.323 381.744 381.42 381.68 381.53 381.658L383.47 381.268C383.821 381.19 383.873 380.604 383.47 380.526Z" fill="#263238"/>
<path d="M395.787 380.526L393.912 380.135C393.859 380.124 393.81 380.102 393.768 380.069C393.726 380.037 393.691 379.995 393.668 379.948C393.644 379.9 393.631 379.848 393.631 379.794C393.63 379.741 393.641 379.688 393.664 379.64L394.445 377.791C394.478 377.711 394.481 377.623 394.454 377.541C394.428 377.459 394.373 377.389 394.299 377.344C394.226 377.298 394.139 377.281 394.054 377.293C393.968 377.306 393.89 377.349 393.834 377.414L392.414 378.872C392.38 378.915 392.337 378.95 392.287 378.974C392.237 378.999 392.183 379.011 392.128 379.011C392.073 379.011 392.018 378.999 391.969 378.974C391.919 378.95 391.876 378.915 391.841 378.872L390.683 377.414C390.435 377.101 389.902 377.414 390.006 377.791L390.461 379.64C390.473 379.695 390.473 379.751 390.462 379.806C390.451 379.861 390.429 379.913 390.397 379.959C390.366 380.006 390.325 380.045 390.278 380.075C390.231 380.105 390.178 380.126 390.123 380.135L388.183 380.526C387.766 380.604 387.714 381.19 388.118 381.268L389.993 381.658C390.045 381.669 390.094 381.691 390.136 381.724C390.178 381.756 390.213 381.798 390.237 381.845C390.261 381.893 390.273 381.946 390.274 381.999C390.274 382.052 390.263 382.105 390.24 382.153L389.459 384.002C389.426 384.082 389.423 384.171 389.45 384.252C389.477 384.334 389.532 384.404 389.605 384.45C389.678 384.495 389.765 384.513 389.851 384.5C389.936 384.487 390.014 384.444 390.071 384.379L391.49 382.921C391.526 382.882 391.571 382.85 391.62 382.829C391.669 382.807 391.723 382.796 391.776 382.796C391.83 382.796 391.883 382.807 391.933 382.829C391.982 382.85 392.026 382.882 392.063 382.921L393.222 384.379C393.469 384.692 394.003 384.379 393.912 384.002L393.456 382.153C393.445 382.099 393.444 382.044 393.454 381.989C393.464 381.935 393.485 381.884 393.515 381.838C393.546 381.792 393.585 381.752 393.631 381.721C393.676 381.691 393.727 381.669 393.781 381.658L395.721 381.268C396.177 381.19 396.177 380.604 395.787 380.526Z" fill="#263238"/>
<path d="M408.103 380.526L406.229 380.135C406.176 380.125 406.127 380.103 406.085 380.07C406.042 380.038 406.008 379.996 405.985 379.947C405.963 379.899 405.952 379.846 405.953 379.793C405.955 379.739 405.969 379.687 405.994 379.64L406.775 377.791C406.8 377.75 406.817 377.705 406.824 377.658C406.831 377.61 406.829 377.562 406.817 377.515C406.806 377.469 406.785 377.425 406.757 377.386C406.729 377.348 406.693 377.315 406.652 377.29C406.611 377.265 406.565 377.249 406.518 377.242C406.47 377.235 406.422 377.237 406.375 377.248C406.329 377.26 406.285 377.28 406.247 377.309C406.208 377.337 406.175 377.373 406.15 377.414L404.744 378.872C404.709 378.916 404.664 378.951 404.614 378.975C404.563 378.999 404.507 379.012 404.451 379.012C404.395 379.012 404.34 378.999 404.289 378.975C404.238 378.951 404.194 378.916 404.158 378.872L403 377.414C402.752 377.101 402.218 377.414 402.323 377.791L402.778 379.64C402.79 379.694 402.79 379.75 402.78 379.804C402.77 379.858 402.749 379.91 402.719 379.956C402.688 380.002 402.649 380.041 402.604 380.072C402.558 380.103 402.507 380.124 402.453 380.135L400.513 380.526C400.096 380.604 400.044 381.19 400.448 381.268L402.31 381.658C402.362 381.669 402.411 381.691 402.453 381.724C402.495 381.756 402.53 381.798 402.554 381.846C402.577 381.893 402.59 381.946 402.591 381.999C402.591 382.052 402.58 382.105 402.557 382.153L401.776 384.002C401.726 384.085 401.711 384.184 401.734 384.278C401.757 384.372 401.817 384.453 401.899 384.503C401.982 384.553 402.082 384.568 402.176 384.545C402.27 384.522 402.351 384.462 402.401 384.38L403.807 382.921C403.843 382.882 403.888 382.85 403.937 382.829C403.986 382.807 404.04 382.796 404.093 382.796C404.147 382.796 404.2 382.807 404.25 382.829C404.299 382.85 404.343 382.882 404.38 382.921L405.539 384.38C405.599 384.448 405.681 384.493 405.771 384.509C405.861 384.525 405.954 384.509 406.034 384.465C406.114 384.422 406.177 384.352 406.212 384.268C406.247 384.184 406.253 384.09 406.229 384.002L405.773 382.153C405.753 382.045 405.776 381.933 405.837 381.841C405.897 381.749 405.991 381.683 406.098 381.658L408.038 381.268C408.455 381.19 408.507 380.604 408.103 380.526Z" fill="#263238"/>
<path d="M378.405 353.561H355.281C354.572 353.573 353.891 353.845 353.368 354.325C352.845 354.804 352.516 355.459 352.443 356.165C352.406 356.497 352.44 356.834 352.544 357.152C352.647 357.469 352.817 357.762 353.043 358.008C353.269 358.255 353.544 358.45 353.852 358.582C354.159 358.713 354.491 358.777 354.826 358.769H377.949C378.659 358.757 379.339 358.485 379.862 358.006C380.385 357.526 380.714 356.871 380.788 356.165C380.823 355.833 380.787 355.498 380.683 355.181C380.578 354.864 380.408 354.573 380.183 354.327C379.957 354.08 379.682 353.885 379.376 353.753C379.069 353.621 378.738 353.556 378.405 353.561Z" fill="#263238"/>
<path d="M401.893 353.561H388.469C387.761 353.574 387.082 353.846 386.561 354.326C386.04 354.806 385.714 355.46 385.644 356.165C385.607 356.496 385.641 356.831 385.744 357.148C385.846 357.465 386.015 357.757 386.24 358.003C386.464 358.25 386.738 358.445 387.044 358.578C387.35 358.71 387.68 358.775 388.014 358.769H401.385C402.093 358.757 402.772 358.485 403.293 358.005C403.814 357.525 404.14 356.87 404.211 356.165C404.247 355.838 404.214 355.508 404.115 355.194C404.015 354.881 403.851 354.592 403.632 354.347C403.413 354.101 403.146 353.904 402.846 353.769C402.546 353.634 402.222 353.563 401.893 353.561Z" fill="#263238"/>
<path opacity="0.2" d="M300.293 210.104C298.634 213.001 297.613 216.219 297.299 219.543L277.912 441.17H337.908L349.965 394.962L345.993 348.741L358.05 302.533L354.144 256.325L366.201 210.104H300.293Z" fill="black"/>
<path d="M348.871 243.305L360.927 197.084H209.205L197.162 243.305L201.12 289.513L189.076 335.721L193.035 381.942L180.991 428.15H332.7L344.757 381.942L340.785 335.721L352.842 289.513L348.871 243.305Z" fill="#407BFF"/>
<path opacity="0.7" d="M348.871 243.305L360.927 197.084H209.205L197.162 243.305L201.12 289.513L189.076 335.721L193.035 381.942L180.991 428.15H332.7L344.757 381.942L340.785 335.721L352.842 289.513L348.871 243.305Z" fill="#C7C7C7"/>
<path opacity="0.5" d="M348.871 243.305H197.162L209.205 197.084H360.927L348.871 243.305Z" fill="#EAEAEA"/>
<path opacity="0.5" d="M340.785 335.721H189.076L201.12 289.513H352.842L340.785 335.721Z" fill="white"/>
<path opacity="0.5" d="M332.7 428.15H180.978L193.035 381.942H344.757L332.7 428.15Z" fill="white"/>
<path opacity="0.2" d="M328.573 262.613C327.016 263.063 325.402 263.283 323.781 263.264C321.584 263.362 319.397 262.914 317.415 261.962C317.056 261.75 316.647 261.637 316.23 261.637C315.847 261.642 315.472 261.74 315.136 261.923H315.058C314.476 262.25 313.855 262.499 313.209 262.665C311.752 263.05 310.25 263.238 308.743 263.225C308.288 263.225 307.845 263.225 307.441 263.225C306.272 263.15 305.115 262.945 303.991 262.613C303.826 262.564 303.655 262.534 303.483 262.522C303.197 262.499 302.909 262.535 302.637 262.628C302.365 262.722 302.116 262.87 301.904 263.065C301.693 263.259 301.524 263.495 301.408 263.758C301.292 264.021 301.232 264.305 301.231 264.592V265.999H242.172C241.087 265.999 240.012 266.212 239.01 266.628C238.008 267.044 237.097 267.653 236.33 268.421C235.564 269.189 234.956 270.1 234.542 271.103C234.128 272.106 233.916 273.181 233.917 274.266V282.586C233.914 283.672 234.125 284.748 234.538 285.753C234.952 286.757 235.559 287.671 236.326 288.44C237.093 289.209 238.004 289.819 239.007 290.236C240.01 290.652 241.086 290.867 242.172 290.867H309.264H309.707C310.423 291.466 311.178 292.065 311.985 292.676C312.792 293.288 313.938 294.135 314.993 294.89C315.353 295.15 315.786 295.291 316.23 295.291C316.674 295.291 317.107 295.15 317.467 294.89C325.904 288.771 331.32 284.552 331.32 272.964V264.631C331.324 264.298 331.249 263.969 331.1 263.671C330.951 263.372 330.733 263.114 330.465 262.916C330.196 262.719 329.885 262.589 329.555 262.536C329.226 262.483 328.89 262.51 328.573 262.613Z" fill="black"/>
<path d="M307.975 261.429H240.896C236.33 261.429 232.628 265.13 232.628 269.696V278.016C232.628 282.582 236.33 286.284 240.896 286.284H307.975C312.541 286.284 316.243 282.582 316.243 278.016V269.696C316.243 265.13 312.541 261.429 307.975 261.429Z" fill="#407BFF"/>
<path d="M322.492 258.681C320.296 258.775 318.109 258.328 316.126 257.379C315.773 257.163 315.368 257.048 314.954 257.048C314.54 257.048 314.135 257.163 313.782 257.379C311.794 258.33 309.603 258.777 307.402 258.681C305.782 258.699 304.168 258.479 302.611 258.03C302.297 257.925 301.963 257.896 301.636 257.945C301.308 257.994 300.998 258.121 300.729 258.315C300.461 258.508 300.242 258.763 300.092 259.057C299.941 259.352 299.863 259.678 299.864 260.009V268.342C299.864 279.943 305.28 284.161 313.717 290.281C314.077 290.541 314.51 290.682 314.954 290.682C315.398 290.682 315.831 290.541 316.191 290.281C324.628 284.161 330.044 279.943 330.044 268.342V260.009C330.043 259.678 329.963 259.351 329.81 259.057C329.658 258.762 329.439 258.508 329.169 258.315C328.9 258.122 328.589 257.995 328.261 257.946C327.933 257.896 327.598 257.925 327.284 258.03C325.727 258.48 324.113 258.699 322.492 258.681Z" fill="#407BFF"/>
<path opacity="0.3" d="M322.492 258.681C320.296 258.775 318.109 258.328 316.126 257.379C315.773 257.163 315.368 257.048 314.954 257.048C314.54 257.048 314.135 257.163 313.782 257.379C311.794 258.33 309.603 258.777 307.402 258.681C305.782 258.699 304.168 258.479 302.611 258.03C302.297 257.925 301.963 257.896 301.636 257.945C301.308 257.994 300.998 258.121 300.729 258.315C300.461 258.508 300.242 258.763 300.092 259.057C299.941 259.352 299.863 259.678 299.864 260.009V268.342C299.864 279.943 305.28 284.161 313.717 290.281C314.077 290.541 314.51 290.682 314.954 290.682C315.398 290.682 315.831 290.541 316.191 290.281C324.628 284.161 330.044 279.943 330.044 268.342V260.009C330.043 259.678 329.963 259.351 329.81 259.057C329.658 258.762 329.439 258.508 329.169 258.315C328.9 258.122 328.589 257.995 328.261 257.946C327.933 257.896 327.598 257.925 327.284 258.03C325.727 258.48 324.113 258.699 322.492 258.681Z" fill="white"/>
<path opacity="0.2" d="M313.782 257.353C311.794 258.304 309.603 258.751 307.402 258.655C305.782 258.672 304.168 258.452 302.611 258.004C302.297 257.899 301.963 257.87 301.636 257.919C301.308 257.968 300.998 258.095 300.729 258.289C300.461 258.482 300.242 258.737 300.092 259.031C299.941 259.326 299.863 259.652 299.864 259.983V268.316C299.864 279.917 305.28 284.135 313.717 290.255C314.095 290.529 314.552 290.671 315.019 290.658V257.015C314.583 257.006 314.153 257.124 313.782 257.353Z" fill="white"/>
<path d="M327.049 266.077C321.974 268.065 317.454 271.25 313.873 275.36C311.376 273.519 308.449 272.349 305.371 271.962H304.967V273.954L305.189 274.032C308.612 275.267 311.562 277.544 313.626 280.542L313.951 281.011L314.225 280.503C317.218 274.94 321.776 270.377 327.336 267.379L327.531 267.288V265.986L327.049 266.077Z" fill="#263238"/>
<path d="M358.245 210.091H352.49C351.75 210.104 351.015 209.96 350.335 209.667C349.655 209.375 349.045 208.94 348.546 208.393C348.047 207.846 347.67 207.199 347.441 206.495C347.212 205.791 347.136 205.046 347.217 204.31L347.725 198.555C347.881 196.99 348.607 195.536 349.763 194.471C350.92 193.405 352.428 192.801 354.001 192.774H359.756C360.497 192.758 361.233 192.901 361.915 193.193C362.597 193.485 363.208 193.919 363.709 194.466C364.209 195.014 364.587 195.662 364.817 196.367C365.047 197.072 365.123 197.818 365.042 198.555L364.534 204.31C364.359 205.87 363.626 207.314 362.47 208.376C361.315 209.438 359.814 210.047 358.245 210.091Z" fill="#407BFF"/>
<path d="M360.641 198.542L359.391 197.162L356.24 200.052L353.61 197.162L352.113 198.542L354.756 201.432L351.618 204.323L352.868 205.69L356.006 202.799L358.649 205.69L360.133 204.323L357.49 201.432L360.641 198.542Z" fill="white"/>
<path d="M229.634 259.736C232.967 263.369 236.144 267.131 239.308 270.92C242.471 274.709 245.531 278.576 248.578 282.456C248.708 282.625 248.656 282.56 248.682 282.612C248.708 282.664 248.682 282.677 248.682 282.69C248.705 282.738 248.736 282.783 248.773 282.82C248.884 282.978 249.025 283.112 249.188 283.215C249.352 283.318 249.533 283.387 249.724 283.419C249.87 283.439 250.019 283.439 250.166 283.419C250.244 283.425 250.323 283.425 250.401 283.419H250.518C250.583 283.419 250.518 283.419 250.726 283.341L253.981 281.571C258.356 279.253 262.77 276.987 267.327 274.956L271.141 279.683C267.47 283.055 263.642 287.286 259.775 290.385L256.859 292.677C256.677 292.824 256.486 292.959 256.286 293.08C256.065 293.237 255.834 293.381 255.596 293.51C255.124 293.781 254.637 294.025 254.137 294.239C253.129 294.663 252.07 294.956 250.987 295.111C248.796 295.433 246.56 295.209 244.477 294.46C243.417 294.084 242.41 293.572 241.482 292.937C241.013 292.624 240.571 292.26 240.18 291.908C239.959 291.726 239.776 291.518 239.568 291.322L239.047 290.802C235.597 287.26 232.199 283.693 228.866 280.06C225.532 276.428 222.238 272.769 219.088 268.967L229.634 259.736Z" fill="#B55B52"/>
<path d="M265.608 277.821L268.642 268.069L276.636 272.053C276.636 272.053 275.464 279.162 269.657 280.399L265.608 277.821Z" fill="#B55B52"/>
<path d="M271.832 265.374L279.045 267.353L276.623 272.053L268.629 268.069L271.832 265.374Z" fill="#B55B52"/>
<path d="M187.605 262.392C186.746 266.532 185.678 270.634 184.572 274.722C183.465 278.81 182.254 282.859 180.991 286.909L180.522 288.432L180.288 289.187C180.256 289.296 180.213 289.401 180.158 289.5C180.009 289.918 179.926 290.358 179.91 290.802C179.883 291.748 180.146 292.679 180.666 293.471C180.922 293.818 181.205 294.144 181.512 294.447L182.592 295.632L184.728 298.015C186.121 299.629 187.527 301.244 188.855 302.936L184.311 308.144C182.436 307.077 180.639 305.918 178.843 304.772L176.174 303.001L174.872 302.103C174.429 301.791 174.064 301.582 173.348 300.996C170.801 298.825 169.043 295.873 168.349 292.598C167.999 290.929 167.916 289.216 168.101 287.521C168.101 287.104 168.231 286.635 168.297 286.219L168.44 285.437L168.713 283.875C169.442 279.696 170.223 275.529 171.096 271.389C171.968 267.248 172.906 263.121 174.012 259.046L187.605 262.392Z" fill="#B55B52"/>
<path d="M184.402 302.52L189.767 299.772L192.136 308.886C192.136 308.886 187.827 310.54 184.493 308.418L184.402 302.52Z" fill="#B55B52"/>
<path d="M197.188 296.843L197.435 305.228L191.433 309.147L189.35 299.942L197.188 296.843Z" fill="#B55B52"/>
<path d="M214.752 219.348C214.882 219.986 215.338 220.442 215.754 220.363C216.171 220.285 216.418 219.686 216.288 219.061C216.158 218.436 215.702 217.968 215.286 218.046C214.869 218.124 214.622 218.736 214.752 219.348Z" fill="#263238"/>
<path d="M215.273 220.455C216.445 222.271 217.86 223.918 219.478 225.35C219.101 225.756 218.641 226.075 218.128 226.284C217.615 226.493 217.063 226.588 216.51 226.561L215.273 220.455Z" fill="#A02724"/>
<path d="M211.666 216.249C211.591 216.248 211.518 216.226 211.455 216.184C211.393 216.143 211.344 216.085 211.313 216.016C211.283 215.947 211.273 215.871 211.285 215.797C211.297 215.723 211.33 215.654 211.38 215.598C211.787 215.137 212.298 214.779 212.871 214.552C213.443 214.326 214.061 214.238 214.674 214.296C214.724 214.306 214.772 214.325 214.815 214.353C214.858 214.381 214.895 214.417 214.924 214.459C214.953 214.502 214.974 214.549 214.984 214.599C214.995 214.65 214.996 214.701 214.986 214.752C214.978 214.802 214.961 214.85 214.934 214.892C214.907 214.935 214.872 214.973 214.831 215.002C214.79 215.031 214.743 215.051 214.694 215.062C214.644 215.073 214.593 215.074 214.544 215.064C214.058 215.018 213.568 215.088 213.115 215.269C212.662 215.45 212.259 215.737 211.94 216.106C211.87 216.187 211.772 216.238 211.666 216.249Z" fill="#263238"/>
<path d="M195.977 228.423C197.409 234.399 198.854 245.349 193.725 249.32C193.725 249.32 195.73 255.387 209.349 255.387C224.322 255.387 216.51 251.481 216.51 251.481C208.333 249.893 208.541 242.797 210 238.149L195.977 228.423Z" fill="#B55B52"/>
<path d="M192.123 250.427C191.238 248.773 190.248 246.872 192.279 246.273C194.519 245.622 208.88 244.411 213.111 245.635C211.809 247.94 214.01 250.843 214.01 250.843L192.123 250.427Z" fill="#263238"/>
<path d="M204.023 529.81H213.411L214.348 510.905H204.948L204.023 529.81Z" fill="#B55B52"/>
<path d="M144.405 527.206L153.922 527.714L159.703 509.082L150.186 508.574L144.405 527.206Z" fill="#B55B52"/>
<path d="M153.636 526.958L144.665 525.018C144.508 524.983 144.344 525.002 144.199 525.073C144.054 525.144 143.939 525.263 143.871 525.409L140.759 532.166C140.683 532.331 140.645 532.51 140.648 532.691C140.652 532.872 140.697 533.05 140.78 533.211C140.863 533.372 140.981 533.511 141.127 533.619C141.272 533.727 141.44 533.8 141.619 533.833C144.756 534.458 146.319 534.601 150.264 535.461C152.686 535.981 158.167 537.322 161.513 538.065C164.859 538.807 166.018 535.578 164.716 534.979C158.857 532.31 156.409 529.953 154.821 527.753C154.536 527.353 154.114 527.07 153.636 526.958Z" fill="#263238"/>
<path d="M212.916 528.859H203.997C203.836 528.861 203.68 528.918 203.555 529.019C203.43 529.121 203.342 529.262 203.307 529.419L201.693 536.671C201.651 536.847 201.65 537.03 201.69 537.206C201.73 537.382 201.809 537.546 201.922 537.687C202.035 537.828 202.179 537.941 202.342 538.017C202.505 538.094 202.684 538.132 202.865 538.129C206.081 538.129 210.677 537.882 214.778 537.882C219.504 537.882 223.579 538.143 229.1 538.143C232.446 538.143 233.384 534.757 231.977 534.445C225.585 533.052 220.377 532.895 214.856 529.497C214.279 529.113 213.609 528.892 212.916 528.859Z" fill="#263238"/>
<path d="M176.707 252.08C169.625 255.452 167.698 275.894 167.698 275.894L185.236 283.992C188.2 278.992 189.815 273.308 189.923 267.496C190.274 256.937 183.96 248.682 176.707 252.08Z" fill="#263238"/>
<path opacity="0.4" d="M186.186 264.684C183.022 269.605 183.322 277.209 184.415 283.628L185.197 283.992C188.158 278.991 189.773 273.307 189.884 267.496C189.884 266.871 189.884 266.194 189.884 265.634L186.186 264.684Z" fill="black"/>
<path d="M225.65 251.585C225.65 251.585 234.347 261.403 226.131 322.154H182.475C182.176 315.449 186.381 282.755 179.871 251.169C184.696 250.241 189.576 249.623 194.48 249.32C200.664 248.968 206.862 248.968 213.046 249.32C217.299 249.751 221.513 250.508 225.65 251.585Z" fill="#3988FF"/>
<path opacity="0.6" d="M225.65 251.585C225.65 251.585 234.347 261.403 226.131 322.154H182.475C182.176 315.449 186.381 282.755 179.871 251.169C184.696 250.241 189.576 249.623 194.48 249.32C200.664 248.968 206.862 248.968 213.046 249.32C217.299 249.751 221.513 250.508 225.65 251.585Z" fill="#FAFAFA"/>
<path opacity="0.2" d="M229.465 270.152L229.308 270.009L220.624 265.374C219.739 278.745 225.715 287.13 229.269 290.789C229.715 283.919 229.78 277.029 229.465 270.152Z" fill="black"/>
<path opacity="0.2" d="M214.348 510.905L213.867 520.657H204.466L204.948 510.905H214.348Z" fill="black"/>
<path opacity="0.2" d="M150.186 508.587L159.703 509.082L156.722 518.691L147.204 518.183L150.186 508.587Z" fill="black"/>
<path d="M192.956 222.356C195.053 230.168 195.886 234.868 200.768 238.123C208.034 243.018 217.069 237.394 217.356 229.1C217.603 221.639 214.14 210.091 205.742 208.515C203.888 208.148 201.971 208.263 200.174 208.848C198.377 209.434 196.759 210.47 195.477 211.858C194.194 213.246 193.289 214.94 192.848 216.778C192.407 218.616 192.444 220.536 192.956 222.356Z" fill="#B55B52"/>
<path d="M210.651 322.154C210.651 322.154 201.38 384.533 196.329 407.917C190.73 433.566 160.862 518.196 160.862 518.196L146.241 515.032C146.241 515.032 164.976 446.026 169.677 410.247C171.499 396.277 173.7 373.791 176.486 355.003C179.181 336.775 182.501 322.167 182.501 322.167L210.651 322.154Z" fill="#263238"/>
<path d="M164.364 513.313L161.63 518.6L145.199 515.032L146.579 510.098L164.364 513.313Z" fill="#3988FF"/>
<path opacity="0.6" d="M164.364 513.313L161.63 518.6L145.199 515.032L146.579 510.098L164.364 513.313Z" fill="white"/>
<path opacity="0.6" d="M204.792 344.379C194.076 346.475 195.209 386.434 196.498 406.979C199.597 392.449 204.115 364.508 207.2 344.665C206.454 344.298 205.604 344.197 204.792 344.379Z" fill="black"/>
<path d="M226.131 322.154C226.131 322.154 230.493 383.192 229.608 408.086C228.683 433.983 216.405 518.756 216.405 518.756H202.578C202.578 518.756 202.07 435.428 201.458 410.052C200.781 382.319 197.435 322.141 197.435 322.141L226.131 322.154Z" fill="#263238"/>
<path d="M219.062 513.261C219.127 513.261 218.28 519.003 218.28 519.003H201.458L201.003 513.873L219.062 513.261Z" fill="#3988FF"/>
<path opacity="0.6" d="M219.062 513.261C219.127 513.261 218.28 519.003 218.28 519.003H201.458L201.003 513.873L219.062 513.261Z" fill="white"/>
<path d="M220.559 263.004C220.559 279.383 229.269 286.128 229.269 286.128L243.474 272.3C240.112 266.681 236.283 261.355 232.029 256.377C223.814 246.963 220.559 252.484 220.559 263.004Z" fill="#263238"/>
<path opacity="0.2" d="M216.809 232.068C216.519 232.889 216.033 233.627 215.394 234.217C214.754 234.807 213.979 235.232 213.137 235.454C212.212 235.643 211.371 236.124 210.741 236.828C210.11 237.531 209.722 238.419 209.635 239.36C211.321 238.796 212.85 237.842 214.096 236.574C215.343 235.307 216.273 233.763 216.809 232.068Z" fill="black"/>
<path d="M213.137 206.797C216.054 203.112 211.562 202.891 211.562 202.891C212.734 198.503 207.474 200.86 207.474 200.86C204.323 196.511 202.539 201.81 202.539 201.81C199.271 198.125 198.633 204.141 198.633 204.141C195.352 199.466 193.686 206.211 193.686 206.211C190.665 201.354 188.816 207.669 188.816 207.669C182.579 205.443 185.535 211.927 185.535 211.927C180.223 212.07 184.493 216.197 184.493 216.197C178.114 216.197 183.738 219.856 183.738 219.856C178.673 223.176 185.04 224.074 185.04 224.074C180.913 230.584 188.009 228.136 188.009 228.136C185.131 234.542 191.498 231.717 191.498 231.717C191.095 237.888 194.649 236.209 196.368 235.063C196.693 236.365 197.318 237.667 198.464 237.771C200.69 238.071 201.068 233.865 201.068 233.865C201.068 233.865 203.125 235.48 204.857 234.607C206.588 233.735 205.937 231.535 205.937 231.535C206.313 231.816 206.77 231.968 207.239 231.968C207.709 231.968 208.165 231.816 208.541 231.535C209.283 230.962 209.283 226.821 208.346 225.363L211.731 224.061C211.731 224.061 214.244 223.71 213.124 220.39C212.449 218.481 212.389 216.409 212.955 214.465C216.783 212.669 213.632 210.559 213.632 210.559C218.072 207.708 213.137 206.797 213.137 206.797Z" fill="#263238"/>
<path d="M206.276 222.642C206.806 224.584 207.964 226.297 209.57 227.511C211.692 229.1 213.281 227.511 213.124 225.129C212.994 222.968 211.718 219.543 209.375 218.892C207.031 218.241 205.716 220.337 206.276 222.642Z" fill="#B55B52"/>
</svg>
